<svg id="eF8Pg2xIj971" xmlns="http://www.w3.org/2000/svg" xmlns:xlink="http://www.w3.org/1999/xlink" viewBox="0 0 1920 1080" shape-rendering="geometricPrecision" text-rendering="geometricPrecision" project-id="e58e48dd2e294529bf5b109d5a59aecd" export-id="c2b434bfe53e47ee932918c0490f47c9" cached="false"><defs><linearGradient id="eF8Pg2xIj975-fill" x1="0" y1="0.5" x2="1" y2="0.5" spreadMethod="pad" gradientUnits="objectBoundingBox" gradientTransform="translate(0 0)"><stop id="eF8Pg2xIj975-fill-0" offset="0%" stop-color="#1596f9"/><stop id="eF8Pg2xIj975-fill-1" offset="100%" stop-color="#05ecfa"/></linearGradient><linearGradient id="eF8Pg2xIj976-fill" x1="0" y1="0.5" x2="1" y2="0.5" spreadMethod="pad" gradientUnits="objectBoundingBox" gradientTransform="translate(0 0)"><stop id="eF8Pg2xIj976-fill-0" offset="0%" stop-color="rgba(21,150,249,0.37)"/><stop id="eF8Pg2xIj976-fill-1" offset="100%" stop-color="#05ecfa"/></linearGradient><linearGradient id="eF8Pg2xIj977-fill" x1="0" y1="0.5" x2="1" y2="0.5" spreadMethod="pad" gradientUnits="objectBoundingBox" gradientTransform="translate(0 0)"><stop id="eF8Pg2xIj977-fill-0" offset="38%" stop-color="#1596f9"/><stop id="eF8Pg2xIj977-fill-1" offset="100%" stop-color="#05ecfa"/></linearGradient><linearGradient id="eF8Pg2xIj978-fill" x1="0" y1="0.5" x2="1" y2="0.5" spreadMethod="pad" gradientUnits="objectBoundingBox" gradientTransform="translate(0 0)"><stop id="eF8Pg2xIj978-fill-0" offset="53%" stop-color="#1596f9"/><stop id="eF8Pg2xIj978-fill-1" offset="100%" stop-color="#05ecfa"/></linearGradient><linearGradient id="eF8Pg2xIj9710-fill" x1="0" y1="0.5" x2="1" y2="0.5" spreadMethod="pad" gradientUnits="objectBoundingBox" gradientTransform="translate(0 0)"><stop id="eF8Pg2xIj9710-fill-0" offset="0%" stop-color="#5eb7fb"/><stop id="eF8Pg2xIj9710-fill-1" offset="100%" stop-color="#05ecfa"/></linearGradient><linearGradient id="eF8Pg2xIj9712-fill" x1="0" y1="0.5" x2="1" y2="0.5" spreadMethod="pad" gradientUnits="objectBoundingBox" gradientTransform="translate(0 0)"><stop id="eF8Pg2xIj9712-fill-0" offset="0%" stop-color="#1596f9"/><stop id="eF8Pg2xIj9712-fill-1" offset="100%" stop-color="#05ecfa"/></linearGradient><linearGradient id="eF8Pg2xIj9713-fill" x1="0" y1="0.5" x2="1" y2="0.5" spreadMethod="pad" gradientUnits="objectBoundingBox" gradientTransform="translate(0 0)"><stop id="eF8Pg2xIj9713-fill-0" offset="66%" stop-color="#1596f9"/><stop id="eF8Pg2xIj9713-fill-1" offset="100%" stop-color="#32f2fd"/></linearGradient><linearGradient id="eF8Pg2xIj9714-fill" x1="0" y1="0.5" x2="1" y2="0.5" spreadMethod="pad" gradientUnits="objectBoundingBox" gradientTransform="translate(0 0)"><stop id="eF8Pg2xIj9714-fill-0" offset="0%" stop-color="#9cd3fd"/><stop id="eF8Pg2xIj9714-fill-1" offset="74%" stop-color="#05ecfa"/></linearGradient><linearGradient id="eF8Pg2xIj9722-stroke" x1="0.413176" y1="0.007596" x2="0.586824" y2="0.992404" spreadMethod="pad" gradientUnits="objectBoundingBox" gradientTransform="translate(0 0)"><stop id="eF8Pg2xIj9722-stroke-0" offset="17%" stop-color="#1596f9"/><stop id="eF8Pg2xIj9722-stroke-1" offset="72%" stop-color="#05ecfa"/></linearGradient></defs><g transform="translate(-164.496119 155.525132)"><ellipse rx="34.42" ry="34.42" transform="translate(508.904526 270.640451)" fill="#1596f9" stroke-width="0"/><rect width="314" height="35" rx="17" ry="17" transform="matrix(.83373 0 0 1 514.037722 253.140451)" fill="#1596f9" stroke="#fff" stroke-width="0"/></g><rect width="291.97793" height="35" rx="17.5" ry="17.5" transform="matrix(1.135716 0 0 1 645.571106 408.964524)" fill="url(#eF8Pg2xIj975-fill)" stroke-width="0"/><rect width="137.401379" height="35" rx="17.5" ry="17.5" transform="translate(1060.413108 408.665583)" fill="url(#eF8Pg2xIj976-fill)" stroke-width="0"/><rect width="807.724069" height="35" rx="17.5" ry="17.5" transform="translate(169.451044 478.462173)" fill="url(#eF8Pg2xIj977-fill)" stroke-width="0"/><rect width="1036.95103" height="35" rx="17.5" ry="17.5" transform="translate(240.298629 540.777165)" fill="url(#eF8Pg2xIj978-fill)" stroke-width="0"/><rect width="100.904138" height="35" rx="17.5" ry="17.5" transform="translate(1328.775176 540.777165)" fill="#05ecfa" stroke-width="0"/><rect width="68.70069" height="35" rx="17.5" ry="17.5" transform="translate(1028.20966 478.462173)" fill="url(#eF8Pg2xIj9710-fill)" stroke-width="0"/><rect width="484.819747" height="34.350344" rx="17.18" ry="17.18" transform="translate(126.513113 611.569759)" fill="#1596f9" stroke-width="0"/><rect width="386.441378" height="34.350344" rx="17.18" ry="17.18" transform="translate(626.740006 611.569759)" fill="url(#eF8Pg2xIj9712-fill)" stroke-width="0"/><rect width="931.7531" height="34.350345" rx="17" ry="17" transform="translate(289.677249 673.829758)" fill="url(#eF8Pg2xIj9713-fill)" stroke-width="0"/><rect width="64.406897" height="34.350345" rx="16" ry="16" transform="translate(1249.340004 673.829758)" fill="url(#eF8Pg2xIj9714-fill)" stroke-width="0"/><ellipse rx="45.775424" ry="45.775424" transform="matrix(.751977 0 0 0.751982 178.187758 495.962173)" fill="#1596f9" stroke-width="0"/><ellipse rx="45.775424" ry="45.775424" transform="matrix(1.503955 0 0 1.503964 1682.268843 558.277161)" fill="#05ecfa" stroke-width="0"/><ellipse rx="45.775424" ry="45.775424" transform="matrix(.751977 0 0 0.751982 247.03189 558.277165)" fill="#1596f9" stroke-width="0"/><ellipse rx="45.775424" ry="45.775424" transform="matrix(.751977 0 0 0.751982 126.513113 628.744931)" fill="#1596f9" stroke-width="0"/><ellipse rx="45.775424" ry="45.775424" transform="matrix(.751977 0 0 0.751982 298.060827 691.004931)" fill="#1596f9" stroke-width="0"/><rect width="171.208888" height="40" rx="0" ry="0" transform="matrix(1.229606 0 0 1 1494.039814 538.277165)" fill="#05ecfa" stroke-width="0"/><g transform="matrix(15.485662 0 0 15.48566 261.817519 1280.060165)"><path d="M30.96962,54.347826h-5.893549c-1.940095.020579-3.51062,1.018726-3.519644,5.442627v31.90199c.009024,4.4239,1.579549,5.254871,3.519644,5.275448h38.163823c1.940095-.020577,3.51062-.851547,3.519644-5.275446v-31.901992c-.009024-4.423901-1.579549-5.422048-3.519644-5.442627l-5.257914-.000002" transform="matrix(0-1 1 0-16.276759-1.900173)" fill="none" stroke="url(#eF8Pg2xIj9722-stroke)" stroke-width="3" stroke-linecap="round" stroke-linejoin="round"/></g></svg>
